<svg width="16" height="16" viewBox="0 0 16 16" fill="none" xmlns="http://www.w3.org/2000/svg">
<g clip-path="url(#clip0_479_4698)">
<path d="M10.6668 10.6668V12.5335C10.6668 13.2802 10.6668 13.6536 10.5215 13.9388C10.3937 14.1897 10.1897 14.3937 9.93882 14.5215C9.6536 14.6668 9.28023 14.6668 8.5335 14.6668H3.46683C2.72009 14.6668 2.34672 14.6668 2.06151 14.5215C1.81063 14.3937 1.60665 14.1897 1.47882 13.9388C1.3335 13.6536 1.3335 13.2802 1.3335 12.5335V7.46683C1.3335 6.72009 1.3335 6.34672 1.47882 6.06151C1.60665 5.81063 1.81063 5.60665 2.06151 5.47882C2.34672 5.3335 2.72009 5.3335 3.46683 5.3335H5.3335M7.46683 10.6668H12.5335C13.2802 10.6668 13.6536 10.6668 13.9388 10.5215C14.1897 10.3937 14.3937 10.1897 14.5215 9.93882C14.6668 9.6536 14.6668 9.28023 14.6668 8.5335V3.46683C14.6668 2.72009 14.6668 2.34672 14.5215 2.06151C14.3937 1.81063 14.1897 1.60665 13.9388 1.47882C13.6536 1.3335 13.2802 1.3335 12.5335 1.3335H7.46683C6.72009 1.3335 6.34672 1.3335 6.06151 1.47882C5.81063 1.60665 5.60665 1.81063 5.47882 2.06151C5.3335 2.34672 5.3335 2.72009 5.3335 3.46683V8.5335C5.3335 9.28023 5.3335 9.6536 5.47882 9.93882C5.60665 10.1897 5.81063 10.3937 6.06151 10.5215C6.34672 10.6668 6.72009 10.6668 7.46683 10.6668Z" stroke="#475467" stroke-linecap="round" stroke-linejoin="round"/>
</g>
<defs>
<clipPath id="clip0_479_4698">
<rect width="16" height="16" fill="white"/>
</clipPath>
</defs>
</svg>
