<svg width="20" height="20" viewBox="0 0 20 20" fill="none" xmlns="http://www.w3.org/2000/svg">
<g id="filter-funnel-02">
<path id="Icon" d="M2.82162 4.72239C2.19133 4.01796 1.87619 3.66574 1.86431 3.3664C1.85398 3.10636 1.96573 2.85643 2.1664 2.69074C2.39741 2.5 2.87003 2.5 3.81527 2.5H16.1844C17.1296 2.5 17.6023 2.5 17.8333 2.69074C18.0339 2.85643 18.1457 3.10636 18.1354 3.3664C18.1235 3.66574 17.8083 4.01796 17.178 4.72239L12.4228 10.037C12.2972 10.1774 12.2344 10.2477 12.1896 10.3276C12.1499 10.3984 12.1207 10.4747 12.1031 10.554C12.0832 10.6435 12.0832 10.7377 12.0832 10.9261V15.382C12.0832 15.5449 12.0832 15.6264 12.0569 15.6969C12.0337 15.7591 11.9959 15.8149 11.9467 15.8596C11.8911 15.9102 11.8154 15.9404 11.6641 16.001L8.83076 17.1343C8.52447 17.2568 8.37133 17.3181 8.24839 17.2925C8.14088 17.2702 8.04654 17.2063 7.98587 17.1148C7.9165 17.0101 7.9165 16.8452 7.9165 16.5153V10.9261C7.9165 10.7377 7.9165 10.6435 7.8966 10.554C7.87895 10.4747 7.8498 10.3984 7.81007 10.3276C7.76528 10.2477 7.70246 10.1774 7.57682 10.037L2.82162 4.72239Z" stroke="#344054" stroke-width="1.66667" stroke-linecap="round" stroke-linejoin="round"/>
</g>
</svg>
