<svg width="62" height="47" viewBox="0 0 62 47" fill="none" xmlns="http://www.w3.org/2000/svg">
<g id="gmail">
<path id="Vector" d="M47.641 4.43799L31.1764 17.2871L14.3354 4.43799V4.44146L14.3558 4.45883V22.4511L30.9865 35.5781L47.641 22.9581V4.43799Z" fill="#EA4335"/>
<path id="Vector_2" d="M51.9645 1.31256L47.6406 4.43803V22.9582L61.2463 12.5122V6.21955C61.2463 6.21955 59.5948 -2.76792 51.9645 1.31256Z" fill="#FBBC05"/>
<path id="Vector_3" d="M47.6406 22.9587V46.9797H58.0687C58.0687 46.9797 61.0361 46.6741 61.2497 43.2916V12.5127L47.6406 22.9587Z" fill="#34A853"/>
<path id="Vector_4" d="M14.3566 46.9998V22.451L14.3354 22.4336L14.3566 46.9998Z" fill="#C5221F"/>
<path id="Vector_5" d="M14.3354 4.44197L10.0353 1.33387C2.40493 -2.74661 0.75 6.23738 0.75 6.23738V12.53L14.3354 22.4343V4.44197Z" fill="#C5221F"/>
<path id="Vector_6" d="M14.3354 4.44141V22.4337L14.3566 22.4511V4.45877L14.3354 4.44141Z" fill="#C5221F"/>
<path id="Vector_7" d="M0.75 12.5332V43.3121C0.960258 46.6981 3.931 47.0002 3.931 47.0002H14.3591L14.3354 22.434L0.75 12.5332Z" fill="#4285F4"/>
</g>
</svg>
