<svg width="20" height="20" viewBox="0 0 20 20" fill="none" xmlns="http://www.w3.org/2000/svg">
<g id="user-plus-02">
<path id="Icon" d="M15.8333 8.3335V3.3335M13.3333 5.8335H18.3333M13.3333 17.5002V16.5002C13.3333 15.1 13.3333 14.4 13.0608 13.8652C12.8211 13.3948 12.4387 13.0123 11.9683 12.7726C11.4335 12.5002 10.7334 12.5002 9.33329 12.5002H5.66663C4.26649 12.5002 3.56643 12.5002 3.03165 12.7726C2.56124 13.0123 2.17879 13.3948 1.93911 13.8652C1.66663 14.4 1.66663 15.1 1.66663 16.5002V17.5002M10.4166 6.25016C10.4166 7.86099 9.11079 9.16683 7.49996 9.16683C5.88913 9.16683 4.58329 7.86099 4.58329 6.25016C4.58329 4.63933 5.88913 3.3335 7.49996 3.3335C9.11079 3.3335 10.4166 4.63933 10.4166 6.25016Z" stroke="white" stroke-width="1.66667" stroke-linecap="round" stroke-linejoin="round"/>
</g>
</svg>
