<svg width="20" height="20" viewBox="0 0 20 20" fill="none" xmlns="http://www.w3.org/2000/svg">
<path d="M13.3334 3.33366C14.1084 3.33366 14.4958 3.33366 14.8138 3.41884C15.6765 3.65001 16.3504 4.32388 16.5815 5.18661C16.6667 5.50453 16.6667 5.89202 16.6667 6.66699V14.3337C16.6667 15.7338 16.6667 16.4339 16.3942 16.9686C16.1545 17.439 15.7721 17.8215 15.3017 18.0612C14.7669 18.3337 14.0668 18.3337 12.6667 18.3337H7.33337C5.93324 18.3337 5.23318 18.3337 4.6984 18.0612C4.22799 17.8215 3.84554 17.439 3.60586 16.9686C3.33337 16.4339 3.33337 15.7338 3.33337 14.3337V6.66699C3.33337 5.89202 3.33337 5.50453 3.41856 5.18661C3.64973 4.32388 4.3236 3.65001 5.18633 3.41884C5.50424 3.33366 5.89173 3.33366 6.66671 3.33366M10 14.167V9.16699M7.50004 11.667H12.5M8.00004 5.00033H12C12.4668 5.00033 12.7001 5.00033 12.8784 4.9095C13.0352 4.8296 13.1627 4.70212 13.2425 4.54532C13.3334 4.36706 13.3334 4.1337 13.3334 3.66699V3.00033C13.3334 2.53362 13.3334 2.30026 13.2425 2.122C13.1627 1.9652 13.0352 1.83771 12.8784 1.75782C12.7001 1.66699 12.4668 1.66699 12 1.66699H8.00004C7.53333 1.66699 7.29997 1.66699 7.12172 1.75782C6.96491 1.83771 6.83743 1.9652 6.75754 2.122C6.66671 2.30026 6.66671 2.53362 6.66671 3.00033V3.66699C6.66671 4.1337 6.66671 4.36706 6.75754 4.54532C6.83743 4.70212 6.96491 4.8296 7.12172 4.9095C7.29997 5.00033 7.53333 5.00033 8.00004 5.00033Z" stroke="white" stroke-width="1.66667" stroke-linecap="round" stroke-linejoin="round"/>
</svg>
