<svg width="72" height="72" viewBox="0 0 72 72" fill="none" xmlns="http://www.w3.org/2000/svg">
<g id="slack">
<path id="vector" d="M64.8756 33.2493C68.6722 33.2493 71.75 30.1715 71.75 26.3749V26.3749C71.75 22.5783 68.6719 19.5005 64.8753 19.5005V19.5005C61.0783 19.5005 58 22.5785 58 26.3755V33.2493H64.8756ZM45.625 33.2493C49.422 33.2493 52.5 30.1713 52.5 26.3743V7.12549C52.5 3.32853 49.422 0.250488 45.625 0.250488V0.250488C41.828 0.250488 38.75 3.32853 38.75 7.12549V26.3743C38.75 30.1713 41.828 33.2493 45.625 33.2493V33.2493Z" fill="#2EB67D"/>
<path id="vector_2" d="M7.12441 38.7507C3.32778 38.7507 0.250003 41.8285 0.250003 45.6251V45.6251C0.250003 49.4217 3.32808 52.4995 7.1247 52.4995V52.4995C10.9217 52.4995 14 49.4215 14 45.6245V38.7507H7.12441ZM26.375 38.7507C22.578 38.7507 19.5 41.8287 19.5 45.6257V64.8745C19.5 68.6715 22.578 71.7495 26.375 71.7495V71.7495C30.172 71.7495 33.25 68.6715 33.25 64.8745V45.6257C33.25 41.8287 30.172 38.7507 26.375 38.7507V38.7507Z" fill="#E01E5A"/>
<path id="vector_3" d="M38.7504 64.8756C38.7504 68.6722 41.8282 71.75 45.6249 71.75V71.75C49.4215 71.75 52.4993 68.6719 52.4993 64.8753V64.8753C52.4993 61.0783 49.4212 58 45.6243 58L38.7504 58L38.7504 64.8756ZM38.7504 45.625C38.7504 49.422 41.8285 52.5 45.6254 52.5L64.8743 52.5C68.6712 52.5 71.7493 49.422 71.7493 45.625V45.625C71.7493 41.828 68.6712 38.75 64.8743 38.75L45.6254 38.75C41.8285 38.75 38.7504 41.828 38.7504 45.625V45.625Z" fill="#ECB22E"/>
<path id="vector_4" d="M33.2493 7.12441C33.2493 3.32778 30.1715 0.250001 26.3749 0.250001V0.250001C22.5783 0.250001 19.5005 3.32807 19.5005 7.1247V7.1247C19.5005 10.9217 22.5785 14 26.3755 14L33.2493 14L33.2493 7.12441ZM33.2493 26.375C33.2493 22.578 30.1713 19.5 26.3743 19.5L7.12548 19.5C3.32853 19.5 0.250489 22.578 0.250489 26.375V26.375C0.250488 30.172 3.32853 33.25 7.12549 33.25L26.3743 33.25C30.1713 33.25 33.2493 30.172 33.2493 26.375V26.375Z" fill="#36C5F0"/>
</g>
</svg>
