<svg width="25" height="24" viewBox="0 0 25 24" fill="none" xmlns="http://www.w3.org/2000/svg">
<g id="clipboard-check">
<path id="Icon" d="M16.3333 4C17.2632 4 17.7282 4 18.1097 4.10222C19.145 4.37962 19.9536 5.18827 20.231 6.22354C20.3333 6.60504 20.3333 7.07003 20.3333 8V17.2C20.3333 18.8802 20.3333 19.7202 20.0063 20.362C19.7187 20.9265 19.2597 21.3854 18.6952 21.673C18.0535 22 17.2134 22 15.5333 22H9.13325C7.45309 22 6.61302 22 5.97128 21.673C5.40679 21.3854 4.94785 20.9265 4.66023 20.362C4.33325 19.7202 4.33325 18.8802 4.33325 17.2V8C4.33325 7.07003 4.33325 6.60504 4.43547 6.22354C4.71288 5.18827 5.52152 4.37962 6.55679 4.10222C6.93829 4 7.40328 4 8.33325 4M9.33325 15L11.3333 17L15.8333 12.5M9.93325 6H14.7333C15.2933 6 15.5733 6 15.7872 5.89101C15.9754 5.79513 16.1284 5.64215 16.2243 5.45399C16.3333 5.24008 16.3333 4.96005 16.3333 4.4V3.6C16.3333 3.03995 16.3333 2.75992 16.2243 2.54601C16.1284 2.35785 15.9754 2.20487 15.7872 2.10899C15.5733 2 15.2933 2 14.7333 2H9.93325C9.3732 2 9.09317 2 8.87926 2.10899C8.6911 2.20487 8.53812 2.35785 8.44225 2.54601C8.33325 2.75992 8.33325 3.03995 8.33325 3.6V4.4C8.33325 4.96005 8.33325 5.24008 8.44225 5.45399C8.53812 5.64215 8.6911 5.79513 8.87926 5.89101C9.09317 6 9.3732 6 9.93325 6Z" stroke="#344054" stroke-width="2" stroke-linecap="round" stroke-linejoin="round"/>
</g>
</svg>
