<svg width="25" height="24" viewBox="0 0 25 24" fill="none" xmlns="http://www.w3.org/2000/svg">
<g id="users-01">
<path id="Icon" d="M22.6666 21V19C22.6666 17.1362 21.3919 15.5701 19.6666 15.126M16.1666 3.29076C17.6325 3.88415 18.6666 5.32131 18.6666 7C18.6666 8.67869 17.6325 10.1159 16.1666 10.7092M17.6666 21C17.6666 19.1362 17.6666 18.2044 17.3621 17.4693C16.9562 16.4892 16.1775 15.7105 15.1974 15.3045C14.4623 15 13.5304 15 11.6666 15H8.66663C6.80286 15 5.87098 15 5.13589 15.3045C4.15578 15.7105 3.37708 16.4892 2.97111 17.4693C2.66663 18.2044 2.66663 19.1362 2.66663 21M14.1666 7C14.1666 9.20914 12.3758 11 10.1666 11C7.95749 11 6.16663 9.20914 6.16663 7C6.16663 4.79086 7.95749 3 10.1666 3C12.3758 3 14.1666 4.79086 14.1666 7Z" stroke="#344054" stroke-width="2" stroke-linecap="round" stroke-linejoin="round"/>
</g>
</svg>
